{"title":"The Purge Election Year 2016 HC HDRip XviD AC3-VAiN","uid":15312571,"size":1483150972,"categoryP":"video","categoryS":"movies","magnet":"?xt=urn:btih:0ac73df773e1cce71093ae68f277cfc1d5f1637b&amp;dn=The+Purge+Election+Year+2016+HC+HDRip+XviD+AC3-VAiN+++&amp;tr=udp%3A%2F%2Ftracker.leechers-paradise.org%3A6969&amp;tr=udp%3A%2F%2Fzer0day.ch%3A1337&amp;tr=udp%3A%2F%2Fopen.demonii.com%3A1337&amp;tr=udp%3A%2F%2Ftracker.coppersurfer.tk%3A6969&amp;tr=udp%3A%2F%2Fexodus.desync.com%3A6969","seeders":7,"leechers":7,"uploader":"makintos13","files":3,"time":1468596898,"description":"The Purge Election Year 2016 HC HDRip XviD AC3-VAiN   \r\n\r\nScreens:\r\n \nhttps://imgmak.com/TWX\r\n \nhttps://imgmak.com/TdC\r\n \nhttps://imgmak.com/TdK\r\n \nhttps://imgmak.com/TdT\r\n \nhttps://imgmak.com/Tda\r\n \nhttps://imgmak.com/Tdp\r\n\r\nP R E S E N T S . . . . \r\n\r\nThe.Purge.Election.Year.2016.HC.HDRip.XviD.AC3-VAiN\r\n\r\niMDB........: http://www.imdb.com/title/tt4094724/\r\n\r\n\r\n\r\nT E C H N i C A L . i N F O . . .\r\n\r\nBasic Information\r\nFormat                      : AVI\r\nFormat/Info                 : Audio Video Interleave\r\nFile size                   : 1.37 GiB\r\nDuration                    : 1h 52mn\r\nOverall bit rate            : 1 743 Kbps\r\nWriting application         : VirtualDubMod 1.5.10.2 (build 2542/release)\r\nWriting library             : VirtualDub build 32593/release\r\n\r\nVideo\r\nID                          : 0\r\nFormat                      : MPEG-4 Visual\r\nFormat profile              : Advanced   \r\nFormat settings, BVOP       : 2\r\nFormat settings, QPel       : No\r\nFormat settings, GMC        : No warppoints\r\nFormat settings, Matrix     : Default (H.263)\r\nMuxing mode                 : Packed bitstream\r\nCodec ID                    : XVID\r\nCodec ID/Hint               : XviD\r\nDuration                    : 1h 52mn\r\nBit rate                    : 1 542 Kbps\r\nWidth                       : 720 pixels\r\nHeight                      : 304 pixels\r\nDisplay aspect ratio        : 2.35:1\r\nFrame rate                  : 23.976 (23976/1000) fps\r\nColor space                 : YUV\r\nChroma subsampling          : 4:2:0\r\nBit depth                   : 8 bits\r\nScan type                   : Progressive\r\nCompression mode            : Lossy\r\nBits/(Pixel*Frame)          : 0.294\r\nStream size                 : 1.21 GiB (88%)\r\nWriting library             : XviD 66\r\n\r\nAudio\r\nID                          : 1\r\nFormat                      : AC-3\r\nFormat/Info                 : Audio Coding 3\r\nMode extension              : CM (complete main)\r\nFormat settings, Endianness : Big\r\nCodec ID                    : 2000\r\nDuration                    : 1h 52mn\r\nBit rate mode               : Constant\r\nBit rate                    : 192 Kbps\r\nChannel(s)                  : 2 channels\r\nChannel positions           : Front: L R\r\nSampling rate               : 48.0 KHz\r\nFrame rate                  : 31.250 fps (1536 spf)\r\nCompression mode            : Lossy\r\nStream size                 : 154 MiB (11%)\r\nAlignment                   : Split accross interleaves\r\nInterleave, duration        : 42 ms (1.00 video frame)\r\nInterleave, preload duratio : 500 ms\r\n\r\nE N C O D E R S . N O T E S . . .       \r\n\r\nSOURCE......: ViDEO...CHS\r\n............: AUDiO...CHS\r\nSAMPLE......: Yippers \r\nADDED NOTE..: Love Me.... Love You","torrent":{"xt":"urn:btih:0ac73df773e1cce71093ae68f277cfc1d5f1637b","amp;dn":"The+Purge+Election+Year+2016+HC+HDRip+XviD+AC3-VAiN+++","amp;tr":["udp%3A%2F%2Ftracker.leechers-paradise.org%3A6969","udp%3A%2F%2Fzer0day.ch%3A1337","udp%3A%2F%2Fopen.demonii.com%3A1337","udp%3A%2F%2Ftracker.coppersurfer.tk%3A6969","udp%3A%2F%2Fexodus.desync.com%3A6969"],"infoHash":"0ac73df773e1cce71093ae68f277cfc1d5f1637b","infoHashBuffer":{"type":"Buffer","data":[10,199,61,247,115,225,204,231,16,147,174,104,242,119,207,193,213,241,99,123]},"announce":[],"urlList":[]}}